<?xml version="1.0" standalone="no"?>
<!DOCTYPE svg PUBLIC "-//W3C//DTD SVG 20010904//EN"
 "http://www.w3.org/TR/2001/REC-SVG-20010904/DTD/svg10.dtd">
<svg version="1.0" xmlns="http://www.w3.org/2000/svg"
 width="260.000000pt" height="260.000000pt" viewBox="0 0 260.000000 260.000000"
 preserveAspectRatio="xMidYMid meet">
<metadata>
Created by potrace 1.11, written by Peter Selinger 2001-2013
</metadata>
<g transform="translate(0.000000,260.000000) scale(0.100000,-0.100000)"
fill="#000000" stroke="none">
<path d="M622 2386 c-15 -24 -38 -63 -52 -88 l-23 -45 48 -87 49 -86 85 0 86
0 45 -83 c25 -45 47 -85 48 -89 2 -5 -57 -8 -132 -8 l-136 0 0 -25 c0 -14 3
-25 8 -26 4 0 72 -2 151 -4 79 -2 147 -7 151 -12 4 -4 23 -37 43 -73 l35 -65
-105 -183 -106 -183 -86 3 c-74 3 -87 6 -96 23 -35 67 -138 235 -144 235 -4 0
-16 -6 -26 -14 -19 -14 -18 -18 95 -208 l22 -38 -100 0 -100 0 -41 73 -42 72
-100 -1 c-55 -1 -102 -3 -103 -5 -2 -2 -24 -41 -50 -86 l-48 -83 49 -85 c26
-47 55 -85 63 -86 21 -1 140 -1 170 0 20 1 32 14 63 71 l38 70 100 0 c54 0 99
-2 99 -4 0 -2 -30 -54 -66 -117 l-66 -113 22 -18 c13 -10 24 -17 25 -16 4 4
62 103 88 148 10 19 30 54 44 78 l25 42 83 0 82 0 93 -162 c51 -90 99 -172
106 -183 12 -18 8 -29 -29 -95 l-43 -75 -152 0 -152 0 0 -27 0 -28 136 0 c76
0 134 -4 132 -9 -1 -5 -23 -45 -48 -90 l-45 -81 -86 0 -85 0 -49 -87 -49 -87
28 -49 c15 -28 39 -68 52 -89 l24 -38 98 0 98 0 39 68 c21 37 45 76 52 87 11
18 8 29 -27 85 -22 36 -39 71 -40 79 0 8 21 52 47 97 l46 83 69 -119 c38 -66
72 -120 76 -120 4 0 15 7 25 14 17 13 16 17 -14 72 -18 33 -49 86 -69 119 -54
91 -54 89 -13 163 20 37 38 69 40 72 3 3 99 5 214 5 l210 0 45 -73 c24 -40 44
-75 44 -78 0 -2 -34 -63 -76 -135 -72 -123 -75 -131 -57 -144 10 -8 22 -13 27
-12 5 2 37 52 72 112 35 61 67 111 72 112 7 3 94 -139 100 -162 1 -6 -15 -42
-37 -80 -22 -37 -39 -71 -37 -74 2 -3 25 -43 51 -89 l47 -83 101 3 100 3 48
80 c27 44 48 83 49 88 0 4 -21 45 -47 92 l-48 85 -85 0 -85 0 -53 88 -52 87
140 3 140 3 0 27 0 28 -157 -1 -156 0 -44 68 c-24 37 -43 72 -43 78 0 7 46 92
103 190 l102 179 87 0 86 0 64 -107 c34 -60 69 -120 77 -136 15 -30 23 -32 50
-15 18 11 18 14 -12 67 -17 31 -48 84 -69 119 -21 34 -38 65 -38 67 0 3 47 5
104 5 l104 0 41 -72 42 -73 74 2 c41 1 87 2 103 2 23 1 34 13 75 86 l48 85
-50 88 -50 87 -101 -2 c-56 0 -103 -3 -104 -5 -2 -1 -20 -33 -40 -70 l-38 -68
-64 -1 c-35 0 -81 -1 -101 -1 -26 0 -37 4 -35 12 2 7 32 63 67 123 36 61 61
114 57 118 -4 4 -16 9 -27 13 -17 5 -30 -12 -87 -112 -94 -164 -79 -152 -175
-154 -46 -1 -85 0 -87 3 -12 13 -206 357 -206 366 0 6 19 42 43 80 l42 68 155
-1 c85 0 158 1 161 3 4 1 4 14 2 27 l-5 25 -139 3 -139 3 52 87 53 88 85 0 85
0 49 87 49 87 -28 51 c-16 27 -39 67 -52 88 l-23 37 -99 0 -99 0 -51 -87 -50
-88 41 -74 41 -74 -18 -31 c-10 -17 -35 -57 -54 -88 l-36 -57 -69 119 c-38 66
-72 120 -75 120 -4 0 -16 -6 -26 -14 -18 -13 -15 -20 59 -150 l78 -136 -43
-67 c-23 -38 -46 -70 -50 -73 -10 -7 -417 -6 -422 1 -2 2 -21 34 -41 71 l-37
67 29 53 c16 29 51 91 78 137 45 80 47 84 29 97 -10 8 -22 14 -26 14 -3 0 -37
-54 -75 -119 -38 -66 -69 -119 -70 -118 -1 1 -24 41 -51 88 l-50 86 43 74 42
74 -24 40 c-14 22 -36 61 -51 88 l-26 47 -99 0 -98 0 -28 -44z m225 -75 l33
-59 -33 -55 c-31 -54 -33 -55 -82 -59 -69 -4 -92 0 -99 20 -3 9 -17 35 -30 56
l-25 40 26 45 c41 72 40 71 112 71 l66 0 32 -59z m1102 5 c17 -29 31 -58 31
-65 0 -6 -14 -33 -30 -60 -28 -45 -34 -49 -73 -53 -81 -6 -96 2 -128 63 l-30
56 33 57 32 56 67 0 68 0 30 -54z m-342 -826 c56 -96 102 -182 102 -190 0 -8
-46 -94 -102 -190 l-102 -175 -212 -2 -212 -1 -95 162 c-52 89 -100 173 -106
187 -10 22 -1 42 91 199 56 96 107 178 112 182 6 4 103 6 216 5 l205 -2 103
-175z m-1306 -135 l32 -61 -35 -56 -36 -55 -60 -1 c-45 0 -64 4 -75 16 -20 24
-57 91 -57 104 0 5 14 34 32 63 l31 53 68 -1 67 0 33 -62z m2182 32 c46 -64
53 -86 36 -115 -9 -15 -22 -38 -30 -52 -20 -36 -25 -38 -94 -38 l-62 0 -33 62
-33 62 35 56 36 55 61 1 c58 0 63 -2 84 -31z m-1636 -983 l33 -56 -33 -59 -32
-59 -69 2 -70 3 -32 55 -32 55 31 57 32 58 70 0 70 0 32 -56z m1102 6 c17 -28
31 -55 31 -61 0 -7 -14 -36 -31 -65 l-30 -54 -68 0 -67 0 -31 55 c-34 59 -34
59 5 133 l22 42 69 0 69 0 31 -50z"/>
<path d="M1041 1449 c-59 -103 -80 -147 -75 -162 4 -12 23 -48 44 -81 20 -34
39 -65 41 -71 2 -5 19 -36 38 -68 l33 -57 171 2 170 3 78 135 c43 74 79 142
79 150 0 8 -36 76 -79 150 l-78 135 -170 3 -170 2 -82 -141z m400 36 c14 -22
38 -62 52 -88 15 -26 34 -58 42 -71 15 -22 12 -29 -50 -137 l-65 -114 -126 0
c-124 -1 -126 0 -143 25 -32 46 -111 189 -111 200 0 11 79 154 111 200 17 26
20 26 141 26 l123 -1 26 -40z"/>
</g>
</svg>
